<svg xmlns="http://www.w3.org/2000/svg" xmlns:xlink="http://www.w3.org/1999/xlink" aria-hidden="true" role="img" class="iconify iconify--logos" width="31.88" height="32" preserveAspectRatio="xMidYMid meet" viewBox="0 0 256 257"><defs><linearGradient id="IconifyId1813088fe1fbc01" x1="-.828%" x2="57.636%" y1="7.652%" y2="78.411%"><stop offset="0%" stop-color="#41D1FF"></stop><stop offset="100%" stop-color="#BD34FE"></stop></linearGradient><linearGradient id="IconifyId1813088fe1fbc02" x1="43.376%" x2="50.316%" y1="2.242%" y2="89.03%"><stop offset="0%" stop-color="#FFEA83"></stop><stop offset="8.333%" stop-color="#FFDD35"></stop><stop offset="100%" stop-color="#FFA800"></stop></linearGradient></defs><path fill="url(#IconifyId1813088fe1fbc01)" d="M255.153 37.938L134.897 252.976c-2.483 4.44-8.862 4.466-11.382.048L.873 37.938c-2.592-4.546.428-10.098 5.647-10.29l242.985-8.912c5.219-.191 8.24 5.359 5.648 10.202z"></path><path fill="url(#IconifyId1813088fe1fbc02)" d="M152.074 7.53L115.596 86.724l-35.402 3.045c-13.954 1.2-17.154 19.346-4.99 25.106l28.814 13.645L81.033 251.32c-2.302 11.236 12.739 17.191 18.361 7.22l79.99-141.862l35.402-3.047c13.954-1.2 17.154-19.345 4.99-25.105l-28.814-13.645L213.956 7.53c2.302-11.236-12.739-17.191-18.361-7.221L152.074 7.53z"></path></svg>
